<mxfile host="app.diagrams.net" agent="Mozilla/5.0 (Windows NT 10.0; Win64; x64) AppleWebKit/537.36 (KHTML, like Gecko) Chrome/127.0.0.0 Safari/537.36" version="24.7.6">
  <diagram name="PÃ¡gina-1" id="BIMuQVcGO2IbXSUYDT5V">
    <mxGraphModel dx="2010" dy="786" grid="1" gridSize="10" guides="1" tooltips="1" connect="1" arrows="1" fold="1" page="1" pageScale="1" pageWidth="827" pageHeight="1169" math="0" shadow="0">
      <root>
        <mxCell id="0" />
        <mxCell id="1" parent="0" />
        <mxCell id="ji75eMG0Q7Ob7pB4kZE6-1" value="&lt;h1&gt;CDN&lt;/h1&gt;" style="rounded=0;whiteSpace=wrap;html=1;horizontal=1;verticalAlign=top;" vertex="1" parent="1">
          <mxGeometry x="70" y="120" width="200" height="260" as="geometry" />
        </mxCell>
        <mxCell id="ji75eMG0Q7Ob7pB4kZE6-5" style="edgeStyle=orthogonalEdgeStyle;rounded=0;orthogonalLoop=1;jettySize=auto;html=1;endArrow=none;endFill=0;startArrow=classic;startFill=1;" edge="1" parent="1" source="ji75eMG0Q7Ob7pB4kZE6-2" target="ji75eMG0Q7Ob7pB4kZE6-4">
          <mxGeometry relative="1" as="geometry" />
        </mxCell>
        <mxCell id="ji75eMG0Q7Ob7pB4kZE6-2" value="&lt;h1&gt;webcomponent-REPO&lt;/h1&gt;" style="rounded=1;whiteSpace=wrap;html=1;verticalAlign=top;" vertex="1" parent="1">
          <mxGeometry x="60" y="420" width="220" height="270" as="geometry" />
        </mxCell>
        <mxCell id="ji75eMG0Q7Ob7pB4kZE6-4" value="webcomponent-LIB" style="rounded=1;whiteSpace=wrap;html=1;" vertex="1" parent="1">
          <mxGeometry x="90" y="240" width="120" height="60" as="geometry" />
        </mxCell>
        <mxCell id="ji75eMG0Q7Ob7pB4kZE6-6" value="bussiness-card" style="rounded=1;whiteSpace=wrap;html=1;" vertex="1" parent="1">
          <mxGeometry x="80" y="560" width="120" height="60" as="geometry" />
        </mxCell>
        <mxCell id="ji75eMG0Q7Ob7pB4kZE6-9" style="edgeStyle=orthogonalEdgeStyle;rounded=0;orthogonalLoop=1;jettySize=auto;html=1;entryX=1;entryY=0.25;entryDx=0;entryDy=0;" edge="1" parent="1" source="ji75eMG0Q7Ob7pB4kZE6-7" target="ji75eMG0Q7Ob7pB4kZE6-4">
          <mxGeometry relative="1" as="geometry" />
        </mxCell>
        <mxCell id="ji75eMG0Q7Ob7pB4kZE6-7" value="&lt;h1&gt;portfolio&lt;/h1&gt;" style="rounded=1;whiteSpace=wrap;html=1;" vertex="1" parent="1">
          <mxGeometry x="560" y="130" width="180" height="240" as="geometry" />
        </mxCell>
        <mxCell id="ji75eMG0Q7Ob7pB4kZE6-8" value="&lt;h1&gt;react project&lt;/h1&gt;" style="rounded=1;whiteSpace=wrap;html=1;" vertex="1" parent="1">
          <mxGeometry x="560" y="395" width="180" height="240" as="geometry" />
        </mxCell>
        <mxCell id="ji75eMG0Q7Ob7pB4kZE6-10" style="edgeStyle=orthogonalEdgeStyle;rounded=0;orthogonalLoop=1;jettySize=auto;html=1;entryX=1;entryY=0.5;entryDx=0;entryDy=0;" edge="1" parent="1" source="ji75eMG0Q7Ob7pB4kZE6-8" target="ji75eMG0Q7Ob7pB4kZE6-4">
          <mxGeometry relative="1" as="geometry" />
        </mxCell>
        <mxCell id="ji75eMG0Q7Ob7pB4kZE6-11" value="&lt;font style=&quot;font-size: 48px;&quot; face=&quot;Lucida Console&quot;&gt;CDN + webcomponents&lt;/font&gt;" style="text;html=1;align=center;verticalAlign=middle;whiteSpace=wrap;rounded=0;" vertex="1" parent="1">
          <mxGeometry x="134" y="30" width="606" height="30" as="geometry" />
        </mxCell>
      </root>
    </mxGraphModel>
  </diagram>
</mxfile>
